<svg width="1300" height="1300" viewBox="0 0 122 122" fill="none" xmlns="http://www.w3.org/2000/svg">
<path d="M58.0432 2.24533C59.6298 0.503908 62.3702 0.503909 63.9568 2.24533L72.1104 11.1945C73.1629 12.3497 74.7918 12.7862 76.2809 12.312L87.8167 8.63856C90.0614 7.92374 92.4347 9.29395 92.938 11.5954L95.5246 23.4224C95.8585 24.9491 97.0509 26.1415 98.5776 26.4754L110.405 29.062C112.706 29.5653 114.076 31.9386 113.361 34.1833L109.688 45.7191C109.214 47.2082 109.65 48.8371 110.805 49.8896L119.755 58.0432C121.496 59.6298 121.496 62.3702 119.755 63.9568L110.805 72.1104C109.65 73.1629 109.214 74.7918 109.688 76.2809L113.361 87.8167C114.076 90.0614 112.706 92.4347 110.405 92.938L98.5776 95.5246C97.0509 95.8585 95.8585 97.0509 95.5246 98.5776L92.938 110.405C92.4347 112.706 90.0614 114.076 87.8167 113.361L76.2809 109.688C74.7918 109.214 73.1629 109.65 72.1104 110.805L63.9568 119.755C62.3702 121.496 59.6298 121.496 58.0432 119.755L49.8896 110.805C48.8371 109.65 47.2082 109.214 45.7191 109.688L34.1833 113.361C31.9386 114.076 29.5653 112.706 29.062 110.405L26.4754 98.5776C26.1415 97.0509 24.9491 95.8585 23.4224 95.5246L11.5954 92.938C9.29395 92.4347 7.92374 90.0614 8.63856 87.8167L12.312 76.2809C12.7862 74.7918 12.3497 73.1629 11.1945 72.1104L2.24533 63.9568C0.503908 62.3702 0.503909 59.6298 2.24533 58.0432L11.1945 49.8896C12.3497 48.8371 12.7862 47.2082 12.312 45.7191L8.63855 34.1833C7.92374 31.9386 9.29395 29.5653 11.5954 29.062L23.4224 26.4754C24.9491 26.1415 26.1415 24.9491 26.4754 23.4224L29.062 11.5954C29.5653 9.29395 31.9386 7.92374 34.1833 8.63855L45.7191 12.312C47.2082 12.7862 48.8371 12.3497 49.8896 11.1945L58.0432 2.24533Z" fill="#fff"/>
</svg>
