<svg width="78" height="32" viewBox="0 0 78 32" fill="none" xmlns="http://www.w3.org/2000/svg"><path d="M18.96 16.175a3.88 3.88 0 01-.882 2.515c-.588.714-1.364 1.07-2.328 1.07-.914 0-1.69-.231-2.328-.694-.626-.463-.938-1.145-.938-2.046 0-.438.03-.776.093-1.014.063-.25.12-.482.17-.694-.576.024-1.183.225-1.822.6a5.99 5.99 0 00-1.689 1.502V27.72c0 .438.069.8.206 1.089.138.288.37.513.695.676.275.137.72.256 1.333.356.626.088 1.076.138 1.351.15v1.37H.264v-1.37c.313-.025.626-.056.938-.093.326-.05.601-.113.826-.188.4-.138.676-.35.826-.638.15-.288.226-.664.226-1.127V17.02c0-.45-.107-.851-.32-1.202a2.726 2.726 0 00-.77-.863 3.087 3.087 0 00-.863-.376A5.823 5.823 0 000 14.373v-1.37l8.954-.489.282.282v2.722h.075c.864-1.001 1.777-1.783 2.74-2.347.977-.575 1.99-.863 3.042-.863 1.164 0 2.096.363 2.797 1.089.713.713 1.07 1.64 1.07 2.778zM33.291 31.362H21.427v-1.37c.326-.026.645-.057.958-.094.313-.038.582-.1.807-.188.4-.15.682-.363.845-.638.163-.288.244-.664.244-1.127V17.02c0-.438-.1-.82-.3-1.145-.2-.338-.451-.607-.751-.807-.226-.15-.57-.295-1.033-.432a6.482 6.482 0 00-1.239-.263v-1.37l9.199-.489.281.282v14.905c0 .438.094.814.282 1.127.187.3.457.525.807.675.25.113.526.213.826.3.3.088.613.15.938.188v1.37zM44.864 32c-1.214 0-2.403-.181-3.567-.544-1.152-.35-2.046-.726-2.685-1.127l-.563 1.277h-1.464l-.244-7.002h1.37c.188.563.5 1.201.939 1.915.438.7.939 1.332 1.502 1.896a8.577 8.577 0 002.008 1.426 5.312 5.312 0 002.44.582c1.14 0 1.984-.219 2.535-.657.563-.45.845-1.139.845-2.065 0-.5-.125-.913-.376-1.239-.25-.325-.594-.607-1.032-.845a9.43 9.43 0 00-1.615-.638c-.575-.175-1.289-.388-2.14-.638-.85-.25-1.583-.5-2.196-.75-.6-.264-1.227-.67-1.877-1.221a5.535 5.535 0 01-1.352-1.765c-.338-.688-.507-1.508-.507-2.459 0-1.765.739-3.191 2.215-4.28 1.49-1.089 3.436-1.633 5.839-1.633 1.138 0 2.183.119 3.135.356.963.226 1.77.476 2.421.751l.394-1.107h1.427l.3 6.401h-1.332c-.438-1.301-1.19-2.421-2.253-3.36-1.064-.951-2.209-1.427-3.435-1.427-.964 0-1.721.2-2.272.601-.55.4-.826.957-.826 1.67 0 .952.4 1.64 1.202 2.066.813.425 1.946.826 3.397 1.201 2.24.576 3.88 1.364 4.919 2.365 1.038.99 1.558 2.253 1.558 3.792 0 2.053-.807 3.642-2.422 4.768C49.55 31.438 47.454 32 44.864 32zM77.216 26.875a11.47 11.47 0 01-1.595 2.028 9.577 9.577 0 01-2.103 1.614c-.838.476-1.69.832-2.553 1.07-.85.25-1.833.375-2.947.375-1.852 0-3.454-.262-4.806-.788-1.339-.526-2.446-1.233-3.323-2.121a8.606 8.606 0 01-1.97-3.135c-.426-1.214-.639-2.528-.639-3.942a9.81 9.81 0 01.695-3.66 9.952 9.952 0 012.008-3.136c.851-.889 1.921-1.608 3.21-2.159 1.302-.55 2.754-.826 4.356-.826 1.752 0 3.19.213 4.317.639 1.127.425 2.059 1.013 2.797 1.764a6.389 6.389 0 011.558 2.534c.326.964.489 1.978.489 3.041v1.22H64.02c0 2.566.494 4.519 1.482 5.858.99 1.339 2.56 2.008 4.712 2.008 1.177 0 2.234-.319 3.173-.957a9.178 9.178 0 002.403-2.46l1.426 1.033zm-7.17-7.133c0-.751-.038-1.52-.113-2.31-.075-.788-.207-1.432-.395-1.933-.212-.588-.506-1.032-.882-1.333-.363-.3-.826-.45-1.389-.45-.964 0-1.733.488-2.309 1.464-.576.976-.888 2.522-.939 4.637l6.026-.075zM22.814 4.433c-.137.04-.137.385 0 .425a6.331 6.331 0 014.31 4.334c.037.132.292.132.33 0a6.33 6.33 0 014.308-4.334c.138-.04.138-.385 0-.425A6.33 6.33 0 0127.453.099c-.037-.132-.292-.132-.33 0a6.33 6.33 0 01-4.309 4.334z" fill="#0F0D3B"/></svg>