<svg width="920" height="920" viewBox="0 0 920 920" fill="none" xmlns="http://www.w3.org/2000/svg">
<path d="M134.723 182.717C134.723 156.208 156.213 134.717 182.723 134.717H337.26C584.684 134.717 785.26 335.294 785.26 582.717V737.245C785.26 763.755 763.77 785.245 737.26 785.245H582.723C335.299 785.245 134.723 584.669 134.723 337.245V182.717Z" fill="#FBF6EF"/>
<path d="M217.577 107.995C224.438 82.3891 250.758 67.1931 276.364 74.0543L425.636 114.051C664.629 178.088 806.457 423.742 742.418 662.735L702.423 811.998C695.562 837.604 669.241 852.8 643.635 845.939L494.364 805.942C255.371 741.905 113.542 496.251 177.581 257.259L217.577 107.995Z" fill="#FBF6EF"/>
<path d="M316.949 57.2306C330.204 34.2727 359.56 26.4067 382.519 39.6614L516.35 116.928C730.626 240.639 804.042 514.629 680.329 728.904L603.063 862.73C589.808 885.688 560.451 893.554 537.493 880.3L403.661 803.033C189.385 679.323 115.97 405.332 239.683 191.057L316.949 57.2306Z" fill="#FBF6EF"/>
<path d="M426.059 33.955C444.804 15.21 475.196 15.21 493.941 33.955L603.214 143.226C778.17 318.179 778.17 601.835 603.213 776.788L493.941 886.059C475.196 904.804 444.804 904.804 426.059 886.059L316.786 776.788C141.83 601.835 141.83 318.179 316.787 143.226L426.059 33.955Z" fill="#FBF6EF"/>
<path d="M537.468 39.6614C560.426 26.4067 589.782 34.2727 603.037 57.2307L680.303 191.058C804.017 405.332 730.601 679.323 516.325 803.033L382.493 880.3C359.535 893.554 330.179 885.688 316.924 862.73L239.657 728.904C115.944 514.629 189.36 240.639 403.636 116.928L537.468 39.6614Z" fill="#FBF6EF"/>
<path d="M643.636 74.0542C669.242 67.1931 695.562 82.3892 702.423 107.995L742.419 257.259C806.458 496.251 664.629 741.905 425.636 805.942L276.365 845.939C250.759 852.8 224.438 837.604 217.577 811.998L177.582 662.735C113.543 423.742 255.371 178.088 494.364 114.051L643.636 74.0542Z" fill="#FBF6EF"/>
<path d="M737.277 134.717C763.787 134.717 785.277 156.208 785.277 182.717L785.277 337.245C785.277 584.669 584.701 785.245 337.277 785.245L182.74 785.245C156.23 785.245 134.74 763.755 134.74 737.245L134.74 582.717C134.74 335.294 335.316 134.717 582.74 134.717L737.277 134.717Z" fill="#FBF6EF"/>
<path d="M812.012 217.573C837.619 224.435 852.815 250.755 845.953 276.361L805.958 425.624C741.919 664.617 496.263 806.446 257.27 742.409L107.999 702.413C82.3925 695.551 67.1967 669.231 74.058 643.625L114.053 494.362C178.092 255.369 423.748 113.54 662.741 177.577L812.012 217.573Z" fill="#FBF6EF"/>
<path d="M862.743 316.922C885.701 330.176 893.567 359.532 880.312 382.49L803.046 516.317C679.333 730.592 405.339 804.008 191.063 680.298L57.2311 603.031C34.273 589.776 26.407 560.42 39.662 537.462L116.928 403.635C240.641 189.361 514.635 115.944 728.911 239.655L862.743 316.922Z" fill="#FBF6EF"/>
<path d="M886.059 426.052C904.804 444.797 904.804 475.189 886.059 493.934L776.786 603.204C601.83 778.158 318.171 778.158 143.214 603.204L33.9424 493.934C15.197 475.189 15.1971 444.797 33.9424 426.052L143.215 316.781C318.171 141.828 601.83 141.828 776.787 316.782L886.059 426.052Z" fill="#FBF6EF"/>
<path d="M880.312 537.48C893.567 560.438 885.701 589.794 862.743 603.049L728.911 680.316C514.635 804.026 240.641 730.61 116.928 516.335L39.662 382.509C26.407 359.551 34.2729 330.195 57.2311 316.94L191.063 239.673C405.339 115.963 679.333 189.379 803.046 403.654L880.312 537.48Z" fill="#FBF6EF"/>
<path d="M845.953 643.625C852.815 669.232 837.619 695.552 812.012 702.413L662.741 742.409C423.748 806.447 178.092 664.617 114.053 425.624L74.0579 276.361C67.1966 250.755 82.3925 224.435 107.999 217.574L257.27 177.577C496.263 113.54 741.919 255.37 805.958 494.362L845.953 643.625Z" fill="#FBF6EF"/>
</svg>
