<svg width="224" height="224" viewBox="0 0 224 224" fill="none" xmlns="http://www.w3.org/2000/svg">
<path d="M99.8601 8.10981C107.209 3.20059 116.791 3.20059 124.14 8.10981C128.958 11.3286 134.858 12.5021 140.541 11.3722C149.209 9.64898 158.062 13.3159 162.973 20.6637C166.193 25.4815 171.194 28.8233 176.877 29.9543C185.545 31.6794 192.321 38.455 194.046 47.1228C195.177 52.8059 198.519 57.8073 203.336 61.0271C210.684 65.9379 214.351 74.7907 212.628 83.4588C211.498 89.1422 212.671 95.0417 215.89 99.8601C220.799 107.209 220.799 116.791 215.89 124.14C212.671 128.958 211.498 134.858 212.628 140.541C214.351 149.209 210.684 158.062 203.336 162.973C198.519 166.193 195.177 171.194 194.046 176.877C192.321 185.545 185.545 192.321 176.877 194.046C171.194 195.177 166.193 198.519 162.973 203.336C158.062 210.684 149.209 214.351 140.541 212.628C134.858 211.498 128.958 212.671 124.14 215.89C116.791 220.799 107.209 220.799 99.8601 215.89C95.0417 212.671 89.1422 211.498 83.4588 212.628C74.7907 214.351 65.9379 210.684 61.0271 203.336C57.8073 198.519 52.8059 195.177 47.1228 194.046C38.455 192.321 31.6794 185.545 29.9543 176.877C28.8233 171.194 25.4815 166.193 20.6637 162.973C13.3159 158.062 9.64898 149.209 11.3722 140.541C12.5021 134.858 11.3286 128.958 8.10981 124.14C3.20059 116.791 3.20059 107.209 8.10981 99.8601C11.3286 95.0417 12.5021 89.1422 11.3722 83.4588C9.64898 74.7907 13.3159 65.9379 20.6637 61.0271C25.4815 57.8073 28.8233 52.8059 29.9543 47.1228C31.6794 38.455 38.455 31.6794 47.1228 29.9543C52.8059 28.8233 57.8073 25.4815 61.0271 20.6637C65.9379 13.3159 74.7907 9.64898 83.4588 11.3722C89.1422 12.5021 95.0417 11.3286 99.8601 8.10981Z" fill="white"/>
<path d="M162 105.072C167.333 108.151 167.333 115.849 162 118.928L93 158.765C87.6667 161.845 81 157.996 81 151.837L81 72.1628C81 66.0044 87.6667 62.1554 93 65.2346L162 105.072Z" fill="#514DAD"/>
</svg>
