<svg width="24" height="24" viewBox="0 0 24 24" fill="none" xmlns="http://www.w3.org/2000/svg"><path d="M20.447 20.452h-3.554v-5.57c0-1.327-.026-3.037-1.853-3.037-1.852 0-2.135 1.446-2.135 2.94v5.667H9.351V9h3.413v1.56h.047c.477-.899 1.637-1.85 3.37-1.85 3.6 0 4.267 2.371 4.267 5.455v6.287h-.001zM5.337 7.433a2.061 2.061 0 01-1.715-3.211 2.064 2.064 0 111.714 3.211h.001zM7.12 20.452H3.555V9H7.12v11.452h-.001zM22.227 0H1.772C.791 0 0 .773 0 1.73v20.54C0 23.228.792 24 1.77 24h20.451C23.2 24 24 23.227 24 22.27V1.73C24 .772 23.2 0 22.221 0h.006z" fill="#fff"/></svg>