<svg width="97" height="40" viewBox="0 0 97 40" fill="none" xmlns="http://www.w3.org/2000/svg"><path d="M23.7 20.219c0 1.189-.368 2.237-1.103 3.144-.735.892-1.705 1.338-2.91 1.338-1.142 0-2.111-.29-2.91-.869-.782-.578-1.173-1.43-1.173-2.557 0-.548.04-.97.118-1.267.078-.313.148-.603.21-.869-.719.032-1.477.282-2.275.751a7.487 7.487 0 00-2.112 1.877V34.65c0 .547.086 1.001.258 1.36.172.36.461.642.868.846.344.172.9.32 1.666.445.783.11 1.346.173 1.69.188v1.713H.329V37.49c.39-.031.782-.07 1.173-.117.407-.063.75-.14 1.032-.235.5-.172.845-.438 1.033-.798.187-.36.281-.829.281-1.407V21.274c0-.563-.133-1.064-.399-1.502a3.408 3.408 0 00-.962-1.08c-.281-.187-.641-.344-1.08-.469A7.283 7.283 0 000 17.966v-1.713l11.193-.61.352.352v3.403h.094c1.08-1.252 2.221-2.23 3.426-2.934 1.22-.72 2.487-1.08 3.801-1.08 1.455 0 2.62.455 3.496 1.362.892.892 1.338 2.05 1.338 3.473zM41.614 39.202h-14.83V37.49c.407-.031.806-.07 1.197-.117a4.17 4.17 0 001.009-.235c.5-.188.853-.453 1.056-.798.203-.36.305-.829.305-1.407V21.274c0-.548-.125-1.025-.375-1.432a3.07 3.07 0 00-.94-1.009c-.28-.187-.71-.367-1.29-.54a8.106 8.106 0 00-1.548-.328v-1.713l11.498-.61.352.352v18.632c0 .547.117 1.016.352 1.407.234.376.57.657 1.009.845.312.14.657.266 1.032.376.375.11.767.187 1.173.234v1.713zM56.08 40c-1.518 0-3.004-.227-4.46-.68-1.438-.438-2.557-.908-3.355-1.408l-.704 1.595h-1.83l-.305-8.752h1.713c.235.704.626 1.502 1.173 2.393a13.324 13.324 0 001.877 2.37 10.725 10.725 0 002.511 1.783 6.64 6.64 0 003.05.728c1.424 0 2.48-.274 3.169-.821.704-.563 1.056-1.424 1.056-2.581 0-.626-.157-1.143-.47-1.55-.313-.406-.743-.758-1.29-1.055a11.797 11.797 0 00-2.018-.798c-.72-.219-1.612-.485-2.675-.798a29.079 29.079 0 01-2.746-.938c-.75-.329-1.533-.837-2.346-1.526a6.918 6.918 0 01-1.69-2.205c-.422-.86-.634-1.886-.634-3.074 0-2.206.923-3.99 2.77-5.35 1.861-1.361 4.294-2.042 7.297-2.042 1.424 0 2.73.149 3.919.446 1.204.281 2.213.594 3.027.938l.493-1.384h1.783l.375 8.002h-1.666c-.547-1.627-1.486-3.027-2.816-4.2-1.33-1.19-2.76-1.784-4.294-1.784-1.204 0-2.15.25-2.839.751-.688.5-1.032 1.197-1.032 2.088 0 1.19.5 2.05 1.501 2.582 1.017.531 2.433 1.032 4.248 1.501 2.8.72 4.85 1.705 6.147 2.957 1.299 1.236 1.948 2.816 1.948 4.74 0 2.565-1.009 4.552-3.027 5.96C61.938 39.296 59.317 40 56.08 40zM96.52 33.594a14.347 14.347 0 01-1.994 2.534 11.978 11.978 0 01-2.628 2.018 13.994 13.994 0 01-3.192 1.338c-1.063.313-2.291.47-3.684.47-2.315 0-4.317-.33-6.007-.986-1.674-.658-3.058-1.541-4.153-2.652a10.76 10.76 0 01-2.464-3.919c-.532-1.517-.798-3.16-.798-4.927 0-1.596.29-3.121.868-4.576a12.441 12.441 0 012.511-3.919c1.064-1.11 2.401-2.01 4.013-2.698 1.627-.689 3.441-1.033 5.444-1.033 2.19 0 3.989.266 5.397.798 1.408.532 2.573 1.267 3.496 2.206a7.986 7.986 0 011.948 3.168c.406 1.204.61 2.471.61 3.8v1.526H80.024c0 3.207.618 5.647 1.854 7.321 1.236 1.674 3.199 2.511 5.89 2.511 1.47 0 2.792-.399 3.965-1.197a11.474 11.474 0 003.004-3.074l1.783 1.291zm-8.963-8.917c0-.938-.047-1.9-.141-2.886-.094-.986-.258-1.791-.493-2.417-.266-.735-.634-1.29-1.103-1.666-.454-.375-1.032-.563-1.736-.563-1.205 0-2.167.61-2.887 1.83-.72 1.22-1.11 3.152-1.173 5.796l7.532-.094zM28.52 5.541c-.172.05-.172.481 0 .531a7.913 7.913 0 015.387 5.418c.046.165.364.165.411 0a7.913 7.913 0 015.387-5.417c.172-.05.172-.482 0-.532A7.914 7.914 0 0134.318.124c-.046-.165-.365-.165-.412 0A7.913 7.913 0 0128.52 5.54z" fill="#fff"/></svg>