<svg width="600" height="600" viewBox="0 0 816 816" fill="none" xmlns="http://www.w3.org/2000/svg">
<path d="M382.486 20.7289C389.725 -5.05405 426.275 -5.05415 433.514 20.7288L508.638 288.319C511.23 297.553 518.447 304.77 527.681 307.362L795.271 382.486C821.054 389.725 821.054 426.275 795.271 433.514L527.681 508.638C518.447 511.23 511.23 518.447 508.638 527.681L433.514 795.271C426.275 821.054 389.725 821.054 382.486 795.271L307.362 527.681C304.77 518.447 297.553 511.23 288.319 508.638L20.7289 433.514C-5.05405 426.275 -5.05415 389.725 20.7288 382.486L288.319 307.362C297.553 304.77 304.77 297.553 307.362 288.319L382.486 20.7289Z" stroke="#514DAD"/>
</svg>
