<svg width="600" height="600" viewBox="0 0 864 864" fill="none" xmlns="http://www.w3.org/2000/svg">
<path d="M407.264 17.754C415.972 -4.90342 448.028 -4.90346 456.736 17.754L493.995 114.698C500.694 132.128 522.445 137.956 536.962 126.211L617.701 60.8845C636.571 45.6166 664.332 61.6445 660.545 85.6204L644.34 188.206C641.427 206.65 657.35 222.573 675.794 219.66L778.38 203.455C802.356 199.668 818.383 227.429 803.116 246.299L737.789 327.038C726.044 341.555 731.872 363.306 749.302 370.005L846.246 407.264C868.903 415.972 868.904 448.028 846.246 456.736L749.302 493.995C731.872 500.694 726.044 522.445 737.789 536.962L803.116 617.701C818.383 636.571 802.356 664.332 778.38 660.545L675.794 644.34C657.35 641.427 641.427 657.35 644.34 675.794L660.545 778.38C664.332 802.355 636.571 818.383 617.701 803.116L536.962 737.789C522.445 726.044 500.694 731.872 493.995 749.302L456.736 846.246C448.028 868.903 415.972 868.904 407.264 846.246L370.005 749.302C363.306 731.872 341.555 726.044 327.038 737.789L246.299 803.116C227.429 818.383 199.668 802.356 203.455 778.38L219.66 675.794C222.573 657.35 206.65 641.427 188.206 644.34L85.6204 660.545C61.6445 664.332 45.6165 636.571 60.8844 617.701L126.211 536.962C137.956 522.445 132.128 500.694 114.698 493.995L17.754 456.736C-4.90342 448.028 -4.90346 415.972 17.754 407.264L114.698 370.005C132.128 363.306 137.956 341.555 126.211 327.038L60.8845 246.299C45.6166 227.429 61.6445 199.668 85.6204 203.455L188.206 219.66C206.65 222.573 222.573 206.65 219.66 188.206L203.455 85.6205C199.668 61.6445 227.429 45.6166 246.299 60.8844L327.038 126.211C341.555 137.956 363.306 132.128 370.005 114.698L407.264 17.754Z" stroke="#48C085"/>
</svg>
