<svg width="600" height="600" viewBox="0 0 674 674" fill="none" xmlns="http://www.w3.org/2000/svg">
<path d="M317.472 12.1277C326.113 -2.97071 347.887 -2.97071 356.528 12.1277L360.091 18.354C367.803 31.8289 386.23 34.2549 397.167 23.2351L402.221 18.1433C414.475 5.79577 435.507 11.4313 439.946 28.2517L441.776 35.1881C445.738 50.1998 462.909 57.3124 476.325 49.4988L482.524 45.8884C497.557 37.1333 516.414 48.0202 516.348 65.4164L516.321 72.5901C516.262 88.1157 531.007 99.4303 545.989 95.3552L552.911 93.4722C569.697 88.9062 585.094 104.303 580.528 121.089L578.645 128.011C574.57 142.993 585.884 157.738 601.41 157.679L608.584 157.652C625.98 157.586 636.867 176.443 628.112 191.476L624.501 197.675C616.688 211.091 623.8 228.262 638.812 232.224L645.748 234.054C662.569 238.493 668.204 259.525 655.857 271.779L650.765 276.833C639.745 287.77 642.171 306.197 655.646 313.909L661.872 317.472C676.971 326.113 676.971 347.887 661.872 356.528L655.646 360.091C642.171 367.803 639.745 386.23 650.765 397.167L655.857 402.221C668.204 414.475 662.569 435.507 645.748 439.946L638.812 441.776C623.8 445.738 616.688 462.909 624.501 476.325L628.112 482.524C636.867 497.557 625.98 516.414 608.584 516.348L601.41 516.321C585.884 516.262 574.57 531.007 578.645 545.989L580.528 552.911C585.094 569.697 569.697 585.094 552.911 580.528L545.989 578.645C531.007 574.57 516.262 585.884 516.321 601.41L516.348 608.584C516.414 625.98 497.557 636.867 482.524 628.112L476.325 624.501C462.909 616.688 445.738 623.8 441.776 638.812L439.946 645.748C435.507 662.569 414.475 668.204 402.221 655.857L397.167 650.765C386.23 639.745 367.803 642.171 360.091 655.646L356.528 661.872C347.887 676.971 326.113 676.971 317.472 661.872L313.909 655.646C306.197 642.171 287.77 639.745 276.833 650.765L271.779 655.857C259.525 668.204 238.493 662.569 234.054 645.748L232.224 638.812C228.262 623.8 211.091 616.688 197.675 624.501L191.476 628.112C176.443 636.867 157.586 625.98 157.652 608.584L157.679 601.41C157.738 585.884 142.993 574.57 128.011 578.645L121.089 580.528C104.303 585.094 88.9062 569.697 93.4722 552.911L95.3552 545.989C99.4302 531.007 88.1157 516.262 72.5901 516.321L65.4164 516.348C48.0202 516.414 37.1333 497.557 45.8884 482.524L49.4988 476.325C57.3124 462.909 50.1998 445.738 35.1881 441.776L28.2517 439.946C11.4313 435.507 5.79577 414.475 18.1433 402.221L23.2351 397.167C34.2549 386.23 31.8289 367.803 18.354 360.091L12.1277 356.528C-2.97071 347.887 -2.97071 326.113 12.1277 317.472L18.354 313.909C31.8289 306.197 34.2549 287.77 23.2351 276.833L18.1433 271.779C5.79577 259.525 11.4313 238.493 28.2517 234.054L35.1881 232.224C50.1998 228.262 57.3124 211.091 49.4988 197.675L45.8884 191.476C37.1333 176.443 48.0202 157.586 65.4164 157.652L72.5901 157.679C88.1157 157.738 99.4303 142.993 95.3552 128.011L93.4722 121.089C88.9062 104.303 104.303 88.9062 121.089 93.4722L128.011 95.3552C142.993 99.4303 157.738 88.1157 157.679 72.5901L157.652 65.4164C157.586 48.0202 176.443 37.1333 191.476 45.8884L197.675 49.4988C211.091 57.3124 228.262 50.1998 232.224 35.1881L234.054 28.2517C238.493 11.4313 259.525 5.79577 271.779 18.1433L276.833 23.2351C287.77 34.2549 306.197 31.8289 313.909 18.354L317.472 12.1277Z" stroke="#66C9D1"/>
</svg>
